<svg version="1.2" xmlns="http://www.w3.org/2000/svg" viewBox="0 0 549 100" width="549" height="100">
	<title>logo-svg</title>
	<defs>
		<linearGradient id="g1" x1="28" y1="12.6" x2="122.8" y2="64.3" gradientUnits="userSpaceOnUse">
			<stop offset="0" stop-color="#009aff"/>
			<stop offset=".5" stop-color="#c6008f"/>
			<stop offset="1" stop-color="#f15a24"/>
		</linearGradient>
		<linearGradient id="g2" x1="16.1" y1="34.3" x2="110.9" y2="86.1" gradientUnits="userSpaceOnUse">
			<stop offset="0" stop-color="#009aff"/>
			<stop offset=".5" stop-color="#c6008f"/>
			<stop offset="1" stop-color="#f15a24"/>
		</linearGradient>
		<linearGradient id="g3" x1="22.1" y1="23.4" x2="116.9" y2="75.2" gradientUnits="userSpaceOnUse">
			<stop offset="0" stop-color="#009aff"/>
			<stop offset=".5" stop-color="#c6008f"/>
			<stop offset="1" stop-color="#f15a24"/>
		</linearGradient>
		<linearGradient id="g4" x1="195.4" y1="49.6" x2="538.9" y2="50.5" gradientUnits="userSpaceOnUse">
			<stop offset="0" stop-color="#009aff"/>
			<stop offset=".5" stop-color="#c6008f"/>
			<stop offset="1" stop-color="#f15a24"/>
		</linearGradient>
		<linearGradient id="g5" x1="195.4" y1="43.4" x2="539" y2="44.3" gradientUnits="userSpaceOnUse">
			<stop offset="0" stop-color="#009aff"/>
			<stop offset=".5" stop-color="#c6008f"/>
			<stop offset="1" stop-color="#f15a24"/>
		</linearGradient>
		<linearGradient id="g6" x1="195.4" y1="49.4" x2="538.9" y2="50.2" gradientUnits="userSpaceOnUse">
			<stop offset="0" stop-color="#009aff"/>
			<stop offset=".5" stop-color="#c6008f"/>
			<stop offset="1" stop-color="#f15a24"/>
		</linearGradient>
		<linearGradient id="g7" x1="195.4" y1="49.2" x2="538.9" y2="50" gradientUnits="userSpaceOnUse">
			<stop offset="0" stop-color="#009aff"/>
			<stop offset=".5" stop-color="#c6008f"/>
			<stop offset="1" stop-color="#f15a24"/>
		</linearGradient>
		<linearGradient id="g8" x1="195.4" y1="55.4" x2="538.9" y2="56.3" gradientUnits="userSpaceOnUse">
			<stop offset="0" stop-color="#009aff"/>
			<stop offset=".5" stop-color="#c6008f"/>
			<stop offset="1" stop-color="#f15a24"/>
		</linearGradient>
		<linearGradient id="g9" x1="195.4" y1="55.3" x2="538.9" y2="56.1" gradientUnits="userSpaceOnUse">
			<stop offset="0" stop-color="#009aff"/>
			<stop offset=".5" stop-color="#c6008f"/>
			<stop offset="1" stop-color="#f15a24"/>
		</linearGradient>
	</defs>
	<style>
		.s0 { fill: url(#g1) } 
		.s1 { fill: url(#g2) } 
		.s2 { fill: url(#g3) } 
		.s3 { fill: url(#g4) } 
		.s4 { fill: url(#g5) } 
		.s5 { fill: url(#g6) } 
		.s6 { fill: url(#g7) } 
		.s7 { fill: url(#g8) } 
		.s8 { fill: url(#g9) } 
	</style>
	<g id="_ар_1-2">
		<g id="Layer">
			<filter id="f0">
				<feFlood flood-color="#0a0d16" flood-opacity="1" />
				<feBlend mode="normal" in2="SourceGraphic"/>
				<feComposite in2="SourceAlpha" operator="in" />
			</filter>
			<g id="Layer" filter="url(#f0)">
				<path id="Layer" class="s0" d="m71.8 24.6l-22.5 22.6h-49.3l22.6-22.6h17.3l24.6-24.6h32l-24.7 24.6z"/>
				<path id="Layer" class="s1" d="m69.6 75.3l22.6-22.5h49.2l-22.5 22.5h-17.3l-24.7 24.7h-31.9l24.6-24.7z"/>
				<path id="Layer" class="s2" d="m90.3 47.3l-28.1 28h-39.6l-22.6-22.5h51.1l28.2-28.1h39.6l22.5 22.5-51.1 0.1z"/>
			</g>
			<filter id="f1">
				<feFlood flood-color="#0a0d16" flood-opacity="1" />
				<feBlend mode="normal" in2="SourceGraphic"/>
				<feComposite in2="SourceAlpha" operator="in" />
			</filter>
			<g id="Layer" filter="url(#f1)">
				<path id="Layer" class="s3" d="m230.2 66.5l-0.4-3.5h-0.1q-0.8 2-1.8 2.8-1.1 0.7-3 0.7h-18.9q-5.2 0-7.8-2.2-2.6-2.1-2.6-6.8v-17q0-3-0.2-4.7-0.2-1.6-0.6-2.9h16.2v25.9q0 1.3 0.5 1.9 0.6 0.5 2.1 0.5h13.1q1.5 0 2-0.5 0.6-0.6 0.6-1.9v-18.3q0-3-0.2-4.7-0.3-1.6-0.7-2.9h16.2v26q0 3 0.2 4.7 0.3 1.7 0.7 2.9h-15.3z"/>
				<path id="Layer" fill-rule="evenodd" class="s4" d="m290.8 63.3zm-0.2 0q-0.4 1.4-1.5 2.3-1.1 0.9-2.9 0.9h-19.2q-5.3 0-7.8-2.2-2.6-2.1-2.6-6.8v-15.6q0-4.7 2.6-6.8 2.5-2.2 7.8-2.2h18.5q1 0 1.7 0.2 0.7 0.1 1.2 0.5 0.6 0.4 1.1 1.1 0.4 0.7 0.9 1.7h0.4v-8q0-3-0.2-4.7-0.3-1.7-0.7-2.9h16.2v38.1q0 3 0.2 4.7 0.3 1.6 0.7 2.9h-15.3l-0.9-3.2zm-2.5-2.1q1.5 0 2.1-0.6 0.6-0.5 0.6-1.8v-18.1q0-1.4-0.6-1.9-0.6-0.6-2.1-0.6h-13.5q-1.5 0-2.1 0.6-0.6 0.5-0.6 1.9v18.1q0 1.3 0.6 1.9 0.6 0.5 2.1 0.5z"/>
				<path id="Layer" fill-rule="evenodd" class="s5" d="m332.4 52.8v6q0 1.3 0.6 1.9 0.5 0.5 2 0.5h26.7q2.1 0 4.9-0.4l-1.3 5.7h-37.8q-5.3 0-7.9-2.2-2.5-2.1-2.5-6.8v-15.6q0-4.7 2.5-6.8 2.6-2.2 7.9-2.2h28.7q5.3 0 7.8 2.2 2.6 2.1 2.6 6.8v10.9zm18.8-5.3v-6.8q0-1.4-0.5-1.9-0.6-0.6-2.1-0.6h-13.6q-1.5 0-2 0.6-0.6 0.5-0.6 1.9v6.8z"/>
				<path id="Layer" fill-rule="evenodd" class="s6" d="m392.8 52.8v6q0 1.3 0.6 1.9 0.6 0.5 2.1 0.5h26.7q2 0 4.8-0.4l-1.2 5.7h-37.9q-5.3 0-7.8-2.2-2.6-2.1-2.6-6.8v-15.6q0-4.7 2.6-6.8 2.5-2.2 7.8-2.2h28.7q5.3 0 7.9 2.2 2.5 2.1 2.5 6.8v10.9zm18.9-5.3v-6.8q0-1.4-0.6-1.9-0.5-0.6-2.1-0.6h-13.5q-1.5 0-2.1 0.6-0.6 0.5-0.6 1.9v6.8z"/>
				<path id="Layer" fill-rule="evenodd" class="s7" d="m453.3 36.1h0.2q0.4-1.4 1.5-2.3 1.1-0.8 2.9-0.8h19.2q5.3-0.1 7.8 2.1 2.6 2.1 2.6 6.8v15.6q0 4.7-2.6 6.8-2.5 2.2-7.8 2.2h-18.5q-1 0-1.7-0.2-0.7-0.1-1.2-0.5-0.6-0.4-1.1-1.1-0.4-0.6-1-1.6h-0.3v8.5q0 3 0.2 4.7 0.2 1.7 0.7 2.9h-16.2v-38.7q0-3-0.3-4.7-0.2-1.6-0.6-2.9h15.3c0 0 0.9 3.2 0.9 3.2zm2.6 2.1q-1.5 0-2.1 0.6-0.5 0.5-0.5 1.9v18.1q0 1.3 0.5 1.9 0.6 0.5 2.1 0.5h13.6q1.5 0 2.1-0.5 0.5-0.6 0.5-1.9v-18.1q0-1.4-0.5-1.9-0.6-0.6-2.1-0.6z"/>
				<path id="Layer" class="s8" d="m501.4 79.2l-1.1-6.1q1.3 0.4 3.7 0.6 2.4 0.2 5.7 0.2h19.7q2 0 2.9-0.7 0.9-0.7 0.9-2.7v-7.6l-0.2-0.1q-0.6 1.9-1.7 2.8-1.1 0.9-3.2 0.9h-18.6q-4.7 0-7.3-2.1-2.6-2.1-2.6-5.7v-21.5q0-0.8-0.3-1.9-0.2-1.1-0.7-2.4h16.3v26.5q0 0.9 0.6 1.3 0.7 0.5 1.7 0.5h13.4q2.6 0 2.6-1.8v-22.2q0-0.8-0.2-1.9-0.2-1.1-0.8-2.4h16.3v36.8q0 4.9-2.7 7.2-2.6 2.2-7.3 2.2h-37.1z"/>
			</g>
		</g>
	</g>
</svg>