<svg xmlns="http://www.w3.org/2000/svg"  viewBox="0 0 64 64" width="64px" height="64px" baseProfile="basic"><linearGradient id="wL3Fb8BVcQmqFcBp0cL9ga" x1="25.493" x2="25.493" y1="18" y2="9.966" gradientUnits="userSpaceOnUse"><stop offset="0" stop-color="#e6abff"/><stop offset="1" stop-color="#6dc7ff"/></linearGradient><polygon fill="url(#wL3Fb8BVcQmqFcBp0cL9ga)" points="20.745,18 25.493,9.966 30.24,18"/><linearGradient id="wL3Fb8BVcQmqFcBp0cL9gb" x1="38.493" x2="38.493" y1="18" y2="9.966" gradientUnits="userSpaceOnUse"><stop offset="0" stop-color="#e6abff"/><stop offset="1" stop-color="#6dc7ff"/></linearGradient><polygon fill="url(#wL3Fb8BVcQmqFcBp0cL9gb)" points="33.745,18 38.493,9.966 43.24,18"/><linearGradient id="wL3Fb8BVcQmqFcBp0cL9gc" x1="31.993" x2="31.993" y1="17.034" y2="9" gradientUnits="userSpaceOnUse"><stop offset="0" stop-color="#e6abff"/><stop offset="1" stop-color="#6dc7ff"/></linearGradient><polygon fill="url(#wL3Fb8BVcQmqFcBp0cL9gc)" points="27.245,9 36.74,9 31.993,17.034"/><linearGradient id="wL3Fb8BVcQmqFcBp0cL9gd" x1="25.493" x2="25.493" y1="28.034" y2="20" gradientUnits="userSpaceOnUse"><stop offset="0" stop-color="#e6abff"/><stop offset="1" stop-color="#6dc7ff"/></linearGradient><polygon fill="url(#wL3Fb8BVcQmqFcBp0cL9gd)" points="20.745,20 30.24,20 25.493,28.034"/><linearGradient id="wL3Fb8BVcQmqFcBp0cL9ge" x1="32.879" x2="32.879" y1="37" y2="4" gradientUnits="userSpaceOnUse"><stop offset="0" stop-color="#c822ff"/><stop offset="1" stop-color="#1a6dff"/></linearGradient><path fill="url(#wL3Fb8BVcQmqFcBp0cL9ge)" d="M25.486,37c-0.354,0-0.681-0.187-0.861-0.491l-9.978-17c-0.186-0.314-0.186-0.704,0-1.018	l8.273-14C23.1,4.187,23.427,4,23.781,4h16.424c0.354,0,0.681,0.187,0.861,0.491l10.045,17c0.183,0.309,0.186,0.692,0.008,1.004	C50.94,22.808,50.609,23,50.25,23H34.275l-7.929,13.509C26.167,36.813,25.839,37,25.486,37z M16.669,19l8.823,14.932l7.351-12.44	C33.023,21.187,33.351,21,33.705,21h14.793L39.634,6H24.352L16.669,19z"/><linearGradient id="wL3Fb8BVcQmqFcBp0cL9gf" x1="31.129" x2="31.129" y1="60.022" y2="27.044" gradientUnits="userSpaceOnUse"><stop offset="0" stop-color="#c822ff"/><stop offset="1" stop-color="#1a6dff"/></linearGradient><path fill="url(#wL3Fb8BVcQmqFcBp0cL9gf)" d="M40.227,60.021H23.803c-0.354,0-0.681-0.187-0.861-0.491l-10.045-17	c-0.183-0.31-0.186-0.692-0.008-1.005c0.178-0.312,0.51-0.504,0.869-0.504h15.975L37.653,27.5c0.359-0.608,1.362-0.608,1.722,0	l9.986,17.013c0.186,0.313,0.186,0.704,0,1.018l-8.273,14C40.908,59.835,40.581,60.021,40.227,60.021z M24.374,58.021h15.282	l7.682-13l-8.823-14.931L31.164,42.53c-0.18,0.305-0.507,0.491-0.861,0.491H15.51L24.374,58.021z"/><linearGradient id="wL3Fb8BVcQmqFcBp0cL9gg" x1="25.483" x2="25.483" y1="-9" y2="-17.034" gradientTransform="rotate(180 31.993 18.517)" gradientUnits="userSpaceOnUse"><stop offset="0" stop-color="#e6abff"/><stop offset="1" stop-color="#6dc7ff"/></linearGradient><polygon fill="url(#wL3Fb8BVcQmqFcBp0cL9gg)" points="43.25,46.034 38.502,54.068 33.755,46.034"/><linearGradient id="wL3Fb8BVcQmqFcBp0cL9gh" x1="38.483" x2="38.483" y1="-9" y2="-17.034" gradientTransform="rotate(180 31.993 18.517)" gradientUnits="userSpaceOnUse"><stop offset="0" stop-color="#e6abff"/><stop offset="1" stop-color="#6dc7ff"/></linearGradient><polygon fill="url(#wL3Fb8BVcQmqFcBp0cL9gh)" points="30.25,46.034 25.502,54.068 20.755,46.034"/><linearGradient id="wL3Fb8BVcQmqFcBp0cL9gi" x1="31.983" x2="31.983" y1="-9.966" y2="-18" gradientTransform="rotate(180 31.993 18.517)" gradientUnits="userSpaceOnUse"><stop offset="0" stop-color="#e6abff"/><stop offset="1" stop-color="#6dc7ff"/></linearGradient><polygon fill="url(#wL3Fb8BVcQmqFcBp0cL9gi)" points="36.75,55.034 27.255,55.034 32.002,47"/><linearGradient id="wL3Fb8BVcQmqFcBp0cL9gj" x1="25.483" x2="25.483" y1="1.034" y2="-7" gradientTransform="rotate(180 31.993 18.517)" gradientUnits="userSpaceOnUse"><stop offset="0" stop-color="#e6abff"/><stop offset="1" stop-color="#6dc7ff"/></linearGradient><polygon fill="url(#wL3Fb8BVcQmqFcBp0cL9gj)" points="43.25,44.034 33.755,44.034 38.502,36"/></svg>