<?xml version="1.0" encoding="UTF-8"?><svg id="_ар_2" xmlns="http://www.w3.org/2000/svg" xmlns:xlink="http://www.w3.org/1999/xlink" viewBox="0 0 548.53 100"><defs><style>.cls-1{fill:url(#_овий_зразок_градієнта_1-6);}.cls-2{fill:url(#_овий_зразок_градієнта_1-3);}.cls-3{fill:url(#_овий_зразок_градієнта_1-2);}.cls-4{fill:url(#_овий_зразок_градієнта_1-9);}.cls-5{fill:url(#_овий_зразок_градієнта_1-7);}.cls-6{fill:url(#_овий_зразок_градієнта_1);}.cls-7{fill:url(#_овий_зразок_градієнта_1-5);}.cls-8{fill:url(#_овий_зразок_градієнта_1-8);}.cls-9{fill:url(#_овий_зразок_градієнта_1-4);}</style><linearGradient id="_овий_зразок_градієнта_1" x1="28.01" y1="12.57" x2="122.81" y2="64.34" gradientTransform="matrix(1, 0, 0, 1, 0, 0)" gradientUnits="userSpaceOnUse"><stop offset="0" stop-color="#009aff"/><stop offset=".5" stop-color="#c6008f"/><stop offset="1" stop-color="#f15a24"/></linearGradient><linearGradient id="_овий_зразок_градієнта_1-2" x1="16.15" y1="34.3" x2="110.95" y2="86.06" xlink:href="#_овий_зразок_градієнта_1"/><linearGradient id="_овий_зразок_градієнта_1-3" x1="22.08" y1="23.44" x2="116.88" y2="75.2" xlink:href="#_овий_зразок_градієнта_1"/><linearGradient id="_овий_зразок_градієнта_1-4" x1="195.4" y1="49.64" x2="538.93" y2="50.48" xlink:href="#_овий_зразок_градієнта_1"/><linearGradient id="_овий_зразок_градієнта_1-5" x1="195.42" y1="43.43" x2="538.95" y2="44.27" xlink:href="#_овий_зразок_градієнта_1"/><linearGradient id="_овий_зразок_градієнта_1-6" x1="195.4" y1="49.36" x2="538.93" y2="50.19" xlink:href="#_овий_зразок_градієнта_1"/><linearGradient id="_овий_зразок_градієнта_1-7" x1="195.4" y1="49.21" x2="538.93" y2="50.05" xlink:href="#_овий_зразок_градієнта_1"/><linearGradient id="_овий_зразок_градієнта_1-8" x1="195.39" y1="55.42" x2="538.92" y2="56.26" xlink:href="#_овий_зразок_градієнта_1"/><linearGradient id="_овий_зразок_градієнта_1-9" x1="195.39" y1="55.26" x2="538.92" y2="56.1" xlink:href="#_овий_зразок_градієнта_1"/></defs><g id="_ар_1-2"><g><g><polygon class="cls-6" points="71.84 24.65 71.84 24.65 96.5 0 64.54 0 39.89 24.65 39.88 24.65 22.6 24.65 0 47.25 49.25 47.24 71.84 24.65"/><polygon class="cls-3" points="69.61 75.35 69.61 75.35 44.96 100 76.91 100 101.56 75.35 101.57 75.35 118.86 75.35 141.45 52.75 92.2 52.76 69.61 75.35"/><polygon class="cls-2" points="90.31 47.25 141.45 47.24 118.86 24.65 79.25 24.65 51.14 52.75 0 52.76 22.6 75.35 62.2 75.35 90.31 47.25"/></g><g><path class="cls-9" d="M230.19,66.47l-.35-3.42h-.18c-.53,1.33-1.13,2.24-1.81,2.71-.68,.48-1.66,.71-2.95,.71h-18.86c-3.52,0-6.14-.71-7.84-2.14-1.7-1.43-2.56-3.71-2.56-6.85v-16.97c0-2-.07-3.55-.22-4.67-.15-1.12-.37-2.08-.66-2.89h16.21v25.82c0,.9,.19,1.53,.57,1.89,.38,.36,1.07,.54,2.07,.54h13.04c1,0,1.69-.18,2.07-.54,.38-.36,.57-.99,.57-1.89v-18.26c0-2-.07-3.55-.22-4.67-.15-1.12-.37-2.08-.66-2.89h16.21v25.96c0,2,.07,3.55,.22,4.67,.15,1.12,.37,2.08,.66,2.89h-15.33Z"/><path class="cls-7" d="M290.81,63.34h-.18c-.29,.9-.81,1.65-1.54,2.25-.73,.6-1.69,.89-2.86,.89h-19.21c-3.52,0-6.14-.71-7.84-2.14-1.7-1.43-2.56-3.71-2.56-6.85v-15.55c0-3.14,.85-5.42,2.56-6.85,1.7-1.43,4.32-2.14,7.84-2.14h18.5c.65,0,1.2,.05,1.67,.14,.47,.1,.88,.29,1.23,.57,.41,.24,.76,.58,1.06,1.03,.29,.45,.62,1.01,.97,1.68h.35v-7.99c0-2-.07-3.55-.22-4.67-.15-1.12-.37-2.08-.66-2.89h16.21V58.91c0,2,.07,3.55,.22,4.67,.15,1.12,.37,2.08,.66,2.89h-15.33l-.88-3.14Zm-2.64-2.14c1,0,1.69-.18,2.07-.54,.38-.36,.57-.99,.57-1.89v-18.11c0-.9-.19-1.53-.57-1.89-.38-.36-1.07-.53-2.07-.53h-13.57c-1,0-1.69,.18-2.07,.53-.38,.36-.57,.99-.57,1.89v18.11c0,.9,.19,1.53,.57,1.89,.38,.36,1.07,.54,2.07,.54h13.57Z"/><path class="cls-1" d="M332.39,52.78v5.99c0,.9,.19,1.53,.57,1.89,.38,.36,1.07,.54,2.07,.54h26.7c1.35,0,2.97-.14,4.85-.43l-1.23,5.71h-37.89c-3.52,0-6.14-.71-7.84-2.14-1.7-1.43-2.56-3.71-2.56-6.85v-15.55c0-3.14,.85-5.42,2.56-6.85,1.7-1.43,4.32-2.14,7.84-2.14h28.72c3.52,0,6.14,.71,7.84,2.14,1.7,1.43,2.56,3.71,2.56,6.85v10.84h-34.19Zm18.86-5.28v-6.85c0-.9-.19-1.53-.57-1.89-.38-.36-1.07-.53-2.07-.53h-13.57c-1,0-1.69,.18-2.07,.53-.38,.36-.57,.99-.57,1.89v6.85h18.86Z"/><path class="cls-5" d="M392.84,52.78v5.99c0,.9,.19,1.53,.57,1.89,.38,.36,1.07,.54,2.07,.54h26.7c1.35,0,2.97-.14,4.85-.43l-1.23,5.71h-37.89c-3.52,0-6.14-.71-7.84-2.14-1.7-1.43-2.56-3.71-2.56-6.85v-15.55c0-3.14,.85-5.42,2.56-6.85,1.7-1.43,4.32-2.14,7.84-2.14h28.72c3.52,0,6.14,.71,7.84,2.14,1.7,1.43,2.56,3.71,2.56,6.85v10.84h-34.19Zm18.86-5.28v-6.85c0-.9-.19-1.53-.57-1.89-.38-.36-1.07-.53-2.07-.53h-13.57c-1,0-1.69,.18-2.07,.53-.38,.36-.57,.99-.57,1.89v6.85h18.86Z"/><path class="cls-8" d="M453.28,36.09h.18c.29-.9,.81-1.65,1.54-2.25,.73-.59,1.69-.89,2.86-.89h19.21c3.52,0,6.14,.71,7.84,2.14,1.7,1.43,2.56,3.71,2.56,6.85v15.55c0,3.14-.85,5.42-2.56,6.85-1.7,1.43-4.32,2.14-7.84,2.14h-18.5c-.65,0-1.2-.05-1.67-.14-.47-.09-.88-.29-1.23-.57-.41-.24-.76-.58-1.06-1.03-.29-.45-.62-1.01-.97-1.68h-.35v8.56c0,2,.07,3.55,.22,4.67,.15,1.12,.37,2.08,.66,2.89h-16.21V40.51c0-2-.07-3.55-.22-4.67-.15-1.12-.37-2.08-.66-2.89h15.33l.88,3.14Zm2.64,2.14c-1,0-1.69,.18-2.07,.53-.38,.36-.57,.99-.57,1.89v18.11c0,.9,.19,1.53,.57,1.89,.38,.36,1.07,.54,2.07,.54h13.57c1,0,1.69-.18,2.07-.54,.38-.36,.57-.99,.57-1.89v-18.11c0-.9-.19-1.53-.57-1.89-.38-.36-1.07-.53-2.07-.53h-13.57Z"/><path class="cls-4" d="M501.39,79.17l-1.06-6.06c.82,.24,2.04,.43,3.66,.57,1.61,.14,3.51,.21,5.68,.21h19.74c1.35,0,2.32-.23,2.91-.68,.59-.45,.88-1.37,.88-2.75v-7.56l-.18-.14c-.41,1.28-1,2.24-1.76,2.85-.71,.57-1.76,.86-3.17,.86h-18.59c-3.11,0-5.55-.69-7.31-2.07-1.76-1.38-2.64-3.28-2.64-5.71v-21.47c0-.52-.07-1.16-.22-1.93-.15-.76-.4-1.54-.75-2.35h16.3v26.46c0,.57,.22,1.01,.66,1.32,.44,.31,.98,.46,1.63,.46h13.39c1.76,0,2.64-.59,2.64-1.78v-22.18c0-.52-.07-1.16-.22-1.93-.15-.76-.4-1.54-.75-2.35h16.3v36.73c0,3.28-.9,5.68-2.69,7.2-1.79,1.52-4.24,2.28-7.36,2.28h-37.1Z"/></g></g></g></svg>