<svg version="1.2" xmlns="http://www.w3.org/2000/svg" viewBox="0 0 3000 1700" width="3000" height="1700">
	<title>vecteezy_abstract-geometric-background-with-isometric-digital-blocks_11231538-ai</title>
	<defs>
		<linearGradient id="g1" x1="1221.5" y1="289" x2="2774.6" y2="273.5" gradientUnits="userSpaceOnUse">
			<stop offset="0" stop-color="#00c5e9"/>
			<stop offset=".6" stop-color="#003bff"/>
			<stop offset="1" stop-color="#d654ff"/>
		</linearGradient>
		<linearGradient id="g2" x1="1515.6" y1="206.2" x2="3068.7" y2="190.8" gradientUnits="userSpaceOnUse">
			<stop offset="0" stop-color="#00c5e9"/>
			<stop offset=".6" stop-color="#003bff"/>
			<stop offset="1" stop-color="#d654ff"/>
		</linearGradient>
	</defs>
	<style>
		.s0 { opacity: .1;fill: url(#g1) } 
		.s1 { mix-blend-mode: screen;fill: url(#g2) } 
	</style>
	<g id="BACKGROUND">
	</g>
	<g id="OBJECT">
		<g id="&lt;Clip Group&gt;">
			<path id="&lt;Compound Path&gt;" fill-rule="evenodd" class="s0" d="m4051.5 1143.2v177l-153.3 88.5-141.9-81.9-8.6-5-139-80.2-5.7-3.3-144.7 83.5-8.6 5v-183.6l141.4-81.7-141.4-81.6v-163.4l-136.1 78.6v162.9l6.1 3.5-6.1 3.5v166.7h-11.5v-166.6l-141.8-81.9-135.7 78.3 0.8 0.5 129.2 74.5 11.4 6.7v177l-11.4 6.6-131.2 75.7-10.7 6.2-10.7-6.2-131.2-75.7-0.4 164.9v18h-11.4v-18.4-13.2l0.4-157v-4.3-166.5l-136.2-78.6v163.3l-39.7 22.9-102.1 59-17.2 9.9-131.2 75.7-10.6 6.2-10.7-6.2-131.2-75.7-5.7-3.3-5.7 3.3-131.2 75.7-5 2.9-5.7 3.3-10.7-6.2-131.2-75.7-5.7-3.3-5.7 3.3-131.2 75.7-7.8 4.5-5.7-9.9 8.6-4.9 129.6-74.9 6.5-3.7v-170.4l11.4-6.7 130-75-130-75-5.7-3.3-141.8 81.9v169.9l-39.8 22.9-110.7 63.9-8.6 5v-176.5l-5.3-3.1-130.8-75.5-17.2-9.9 10.7-6.2 135.7-78.3 12.7-7.4 12.6 7.4 129.2 74.5v-0.5l5.7 3.3 5.8-3.3v0.5l129.2-74.5 6.9-4.1v-163.3l-141.9-81.9-135.7 78.4 0.8 0.4 129.2 74.6 11.5 6.6v13.7l-16.8-9.7-130.8-75.4-5.7-3.4-5.8 3.4-130.7 75.4-16.8 9.7v-13.7l11.4-6.6 129.2-74.6 0.8-0.4-141.4-81.7v-169.9l-136.2-78.6-5.7-3.3-141.9 81.9v209.2h-11.4v-386.2l153.3-88.5 147.6 85.2 147.6-85.2 147.5 85.2 142.3-82.1 5.3-3.1 6.1 3.5 141.5 81.7 147.6-85.2 147.6 85.2 147.5-85.2 147.6 85.2 147.6-85.2 147.6 85.2 147.6-85.2 147.6 85.2 147.5-85.2 153.3 88.5 144.8 83.5-5.8 10-139-80.3v156.7l147.6 85.2v169.9l136.2 78.6v-245.2h11.4v421.8zm-2207.6-591.9l0.8 0.4 129.2 74.6v7.5l-5.3 3.1-130.8-75.5v156.7l6.9 4 129.2 74.6v-149.2l5.7-3.3 5.8 3.3v149.2l129.2-74.6 12.6-7.3 12.7 7.3 129.2 74.6v-149.2l11.4-6.6v155.8l136.2-78.6v-156.7l-136.2 78.6v-13.7l129.2-74.6 0.8-0.4-135.7-78.4-141.9 81.9v6.6l-5.7-3.3-5.7 3.3v-6.6l-136.1-78.6-5.8-3.3zm879.4 337.7v-7.5l0.2-0.1 129-74.5 6.9-4v-162.8l-5.4-3.1-130.7-75.5v163.3l-7.1 4.1-4.4 2.5-130 75 74 42.7 56 32.4v7.5l-5.3 3.1-130.8-75.5v156.7l6.9 4 129.2 74.6v-149.2l5.8-3.3 5.7 3.3v149.2l129.2-74.6 12.6-7.3 5.8 3.3 136.1 78.6v-156.7l-136.1-78.6-5.8-3.3-5.7 3.3-130.8 75.5zm-313.5 173l0.8-0.5-138.6-80 2.9-4.9h-5.7v-160l-130.8 75.5-5.4 3.1v162.8l6.1 3.5-6.1 3.6v163.3l7 4 129.2 74.6v-149.2l5.7-3.3 5.7 3.3v149.2l129.2-74.6 6.9-4v-156.7l-130.7 75.5-5.4-3.1v-7.5zm-731 75.1l5.3 3 6.2-3.5 129.2-74.6 0.8-0.5-135.7-78.3-136.2 78.6 0.8 0.4zm147.6-65.3l-130.8 75.5-5.3 3.1v156.7l102.1-59 27.1-15.6 6.9-4zm1930-98.4l136.1 78.6v-157.3l-136.1-78.5zm-147.6-255.2l136.2 78.6v-157.2l-136.2-78.6zm0 333.7l136.2-78.6v-156.7l-136.2 78.6zm-10.1-321.2l-131.3 75.8 135.7 78.3 135.7-78.3-135.7-78.4zm-137.5-267.5l136.2 78.6v-157.2l-136.2-78.7zm-147.5 78.6l136.1-78.6v-157.2l-136.1 78.6zm-737.9 595l129.2-74.6 0.7-0.5-135.7-78.3-141.8 81.9v163.3l6.9 4 129.2 74.6v-163.8zm-583.4-329.7l129.2 74.6 5.8 3.3 5.7-3.3 129.2-74.6 0.8-0.5-135.7-78.3-135.7 78.3zm878.5-330.6l-5.7-3.3-135.7 78.3 0.8 0.5 129.2 74.6 5.7 3.3 5.7-3.3 130-75.1zm289.4-3.3l-135.7 78.4 0.8 0.4 129.2 74.6 5.7 3.3 5.7-3.3 130-75-130-75.1zm-5.7 167.1l-5.3-3.1-130.8-75.5v156.8l6.9 4 129.2 74.5zm-874 333.3l6.9 4 129.2 74.6v-163.8l11.5-6.6 129.1-74.6 0.8-0.5-135.7-78.3-141.8 81.9zm147.6-411.9v156.8l6.9 4 129.2 74.5v-156.7l-5.4-3.1zm147.6 78.6v156.8l136.2-78.6v-156.8zm-147.6 411.9l136.1-78.6v-156.7l-136.1 78.6zm578.9-333.7v-156.7l-136.2 78.6v156.7zm-437-245.3l-135.7 78.4 0.8 0.4 129.2 74.6 5.7 3.3 5.7-3.3 129.2-74.6 0.8-0.4zm442.7 411.8l135-77.9 0.7-0.4-135.7-78.4-135.7 78.4 0.8 0.4zm289.5-166.6v-156.7l-130.8 75.5-5.4 3.1v156.7l129.7-74.8zm-136.2-255.2l136.2 78.6v-157.2l-136.2-78.6zm-147.6 78.6l136.2-78.6v-157.2l-136.2 78.6zm-147.5-78.6l6.5 3.8 129.6 74.8v-157.2l-4.9-2.8-131.2-75.8zm-142.7-81.4l-4.9 2.8v157.2l129.6-74.8 6.5-3.8v-157.2zm-152.5 81.5l6.5 3.7 129.7 74.9v-157.2l-5-2.9-131.2-75.7zm-142.6-81.5l-5 2.9v157.2l129.7-74.9 6.5-3.7v-157.2zm-152.5 81.4l6.5 3.8 129.6 74.8v-157.2l-4.9-2.8-131.2-75.8zm-147.6 78.6l136.1-78.6v-157.2l-136.1 78.6zm-147.6-78.6l136.1 78.6v-157.2l-135.7-78.4-0.4-0.2zm-142.7-81.5l-4.9 2.9v157.2l129.6-74.9 6.6-3.7v-157.2zm-152.6 81.4l6.6 3.8 129.6 74.8v-157.2l-4.9-2.8-131.3-75.8zm130 88.3l-135.7-78.4-5.7 3.3-130 75.1 130 75 5.7 3.3 5.7-3.3 129.2-74.6zm-141.4 88.8l-136.1-78.6v156.7l136.1 78.6zm-136.1-98.4l136.1-78.6v-157.2l-136.1 78.6zm-295.2 0l136.1-78.6v-157.2l-136.1 78.6zm283.7 0v-157.2l-136.1-78.6v157.2zm295.1 19.8l-130.7 75.5-5.4 3.1v156.7l129.2-74.6 6.9-4zm295.2 490.4v-156.7l-5.4-3.1-130.7-75.5v156.7l6.9 4zm-136.1 255.2l129.2-74.6 6.9-4v-156.7l-130.8 75.5-5.3 3.1zm277.2 10.3l0.8-0.4-136.2-78.6-136.1 78.6 0.8 0.4 129.6 74.9 5.7 3.3 5.8-3.3zm295.1 0l0.8-0.5-136.1-78.6-136.2 78.6 0.8 0.5 129.7 74.8 5.7 3.3 5.7-3.3zm154.1-245.7l-136.1 78.7v156.7l102.1-59 34-19.6zm147.6 64.8l5.7 3.4 5.7-3.4 129.2-74.5 0.8-0.5-135.7-78.3-135.7 78.3 0.8 0.5zm11.4 170.4l129.2-74.6 7-4v-156.7l-130.8 75.5-5.4 3.1zm277.2 10.3l0.8-0.4-136.1-78.6-136.2 78.6 0.8 0.4 129.7 74.9 5.7 3.3 5.7-3.3zm-129.6-245.7v156.7l6.9 4 129.2 74.6v-156.7l-5.3-3.1zm136.1-255.1l-130.8 75.5-5.3 3.1v156.7l129.2-74.6 6.9-4zm147.6 78.6l-5.4-3.1-130.8-75.5v156.7l7 4 129.2 74.6zm141.4-88.8l-114-65.8-20.9-12-0.8-0.5-135.7 78.3 0.8 0.5 134.9 77.9zm11.9-6.8l5.7-3.4v0.5l115.2-66.4 20.9-12.1v-156.8l-147.5 85.2v-13.7l141.4-81.6-135.7-78.4-141.9 81.9v163.4l136.2 78.5v-0.5zm141.8 272.2l-136.1 78.6v156.7l136.1-78.6zm0-176.5l-136.1-78.6v156.7l136.1 78.6zm147.6 255.1l-136.1-78.6v156.7l136.1 78.6zm141.4-88.8l-135.7-78.3-135.7 78.3 135.7 78.4zm-130 245.4l136.2-78.6v-156.7l-136.2 78.6zm278 9.9l-136.1-78.6-136.2 78.6 136.2 78.6zm5.7-167.1l-136.1-78.6v157.2l136.1 78.6z"/>
			<path id="&lt;Compound Path&gt;" fill-rule="evenodd" class="s1" d="m4346.5 1163.7v164.5l-153.3 88.5-147.6-85.2-147.6 85.2-5.1-3v-183.6l5.1 3 5.7-3.3 130-75.1-130-75-5.7-3.3-5.7 3.3-75.2 43.4-10.1-7.9 79.9-46.1 5.4-3.1v-156.7l-129.2 74.6-6.9 4v156.7l0.5-0.4v20.5l-0.5-0.3v157.2l0.5 0.3v13.2l-6.3-3.6-142.2 82.1-5.3 3.1-6.2-3.5-141.4-81.7-147.6 85.2-147.6-85.2-147.6 85.2-5.7-3.3v-170.4l-6.5-3.8-129.6-74.8v157.2l4.9 2.8-4.9 2.9v7.5l-5.8-3.3-147.5 85.2-147.6-85.2-5.7 3.3v-170.4l-136.2 78.6v170.4l-5.7 3.3-147.6-85.2-147.6 85.2-5.7-3.3v-170.4l-136.1-78.6v170.4l-11.5-6.6-144.7-83.5 5.7-10 139 80.3v-156.7l-147.5-85.2v-169.9l-136.2-78.6v323.4h-11.4v-500l-147.6-85.2v-177l153.3-88.5 141.9 81.9 8.5 5 139 80.2 5.8 3.3 144.7-83.5 8.6-5v183.6l-141.5 81.7 141.5 81.6v163.4l136.1-78.6v-162.9l-6.1-3.5 6.1-3.5v-166.7h11.4v166.6l141.9 82 135.7-78.4-0.8-0.5-129.2-74.5-11.4-6.7v-177l11.4-6.6 131.2-75.7 10.7-6.2 10.6 6.2 131.2 75.7h0.1l0.3-164.9 0.1-18h11.4v18.4 13.2l-0.4 157v4.3 166.5l136.1 78.6v-163.3l39.8-22.9 102.1-59 0.9-0.5 17.9 10.3q0.1 0.6 0.1 1.2l-1.8-1.1v163.8l-11.4 6.7-129.2 74.5-0.8 0.5 135.7 78.4 141.9-82v-150.9c1-3.7 1.6-7.6 1.6-11.7v-0.9l9.8 5.7v151.2l130.8-75.5 0.3-0.1 5.1-3v-7.5l5.7 3.3 5.7-3.3v14.6l-4.6 2.7-6.8 4-129.2 74.6-0.8 0.4 138.6 80-2.9 5h5.7v160l130.8-75.5 5.4-3.1v-161.2q0.4-1.2 0.8-2.6l12 7q0 0.4 0 0.8l-1.4-0.7v156.7l5.4 3.1 130.7 75.5v-156.2q0.1-0.7 0.2-1.5l11.3 6.5v157.8l141.8 81.9 124.2-71.7c4.7-1.3 9.4-2.7 14.2-4q1.4-0.3 2.8-0.8l13.7 7.9q0 0 0 0-0.1 0.4-0.1 0.7l-1.5-0.8v156.7l136.2 78.6v-156.7l-0.5-0.3q0.1-0.4 0.2-0.8l11.7 6.8v157.6l136.2 78.6 5.7 3.3 136.7-78.9zm-1026.9-264.1l135.7 78.3 135.7-78.3-0.8-0.5-129.2-74.6-5.7-3.3-5.7 3.3-129.2 74.6zm-301.4-10.2l136.2-78.6v-156.7l-136.2 78.6zm-147.5-255.1l136.1-78.6v-156.7l-102.1 59-34 19.6zm0 176.5l5.3 3.1 130.8 75.5v-156.7l-6.9-4-129.2-74.6zm-159.1-241.4l-129.1 74.6-0.8 0.5 135.7 78.3 135.7-78.3-0.8-0.5-129.2-74.6-5.7-3.3zm18.4 159.3l-12.7 7.3-5.7-3.3-136.2-78.6v156.7l136.2 78.6 5.7 3.3 5.7-3.3 130.8-75.5 5.3-3.1v-156.7zm-18.3-329.7l-129.2 74.6-7 4v156.7l130.8-75.5 5.4-3.1zm-278-9.9l136.1 78.6 136.1-78.6-0.7-0.4-129.7-74.9-5.7-3.3-5.7 3.3-129.6 74.9zm130.4 245.2v-156.7l-7-4-129.2-74.6v156.7l5.4 3.1zm-136.1 255.1l130.7-75.5 5.4-3.1v-156.7l-129.2 74.6-6.9 4zm-147.6-78.6l5.3 3.1 130.8 75.5v-156.7l-6.9-4-129.2-74.6zm-295.2-176.5l136.2-78.6v-156.7l-136.2 78.6zm0 176.5l136.2 78.6v-156.7l-136.2-78.6zm-147.6-255.1l136.2 78.6v-156.7l-136.2-78.6zm-159-78.1l-136.1-78.7v157.3l136.1 78.6zm141.9-88.6l-136.2-78.6-136.1 78.6 136.1 78.7zm-130.4 88.5v156.7l136.2-78.6v-156.7zm136.1 255.1l-136.1-78.6v157.2l136.1 78.6zm5.7-9.9l135.7-78.4-135.7-78.3-135.7 78.3zm5.7 9.9v156.7l136.2-78.6v-156.7zm136.1 255.1l-136.1-78.6v157.2l136.1 78.6zm141.4-88.2l-135.7-78.4-135.7 78.4 135.7 78.3 4.4-2.5zm153.8 264.8l-136.2 78.6v157.2l136.2-78.6zm0-176.6l-136.2-78.6v0.6l-5.7-3.4-5.7 3.4v-0.6l-115.2 66.5-21 12.1v156.7l147.6-85.2v13.8l-141.4 81.6 130 75.1 5.7 3.3 141.9-82zm5.7-9.9l135.7-78.3-0.8-0.5-134.9-77.9-135.7 78.4 114 65.8 20.9 12.1zm12.2 6.1l-6.5 3.8v156.7l130.8-75.5 5.3-3.1v-156.7zm129.7 258.9l-136.2-78.6v157.2l136.2 78.6zm141.4-88.3l-0.8-0.5-129.2-74.5-5.7-3.3-5.7 3.3-130 75 130 75.1 5.7 3.3zm6.1-166.9l-6.9-4-129.2-74.6v156.7l5.4 3.1 130.7 75.5zm5.8-9.9l135.7-78.4-0.8-0.4-134.9-77.9-135 77.9-0.7 0.4zm5.7 9.9v156.7l136.1-78.6v-156.7zm136.2 255.2l-6.6-3.8-129.6-74.8v157.2l4.9 2.8 131.3 75.8zm5.7-9.9l135.7-78.4-0.8-0.5-129.2-74.5-5.7-3.4-5.7 3.4-130 75 130 75.1zm141.8-68.7l-129.6 74.8-6.5 3.8v157.2l131.2-75.8 4.9-2.8zm11.5-189.8l129.9-75-74-42.7-55.9-32.4-5.8-3.3-5.7 3.3-0.2 0.2-129 74.4-6.9 4v162.8l5.3 3.1 130.8 75.5v-163.3l7.1-4.1zm0 170l136.1-78.6v-156.8l-136.1 78.7zm141.9 88.5l135.7-78.4-0.8-0.4-129.2-74.6-5.7-3.3-5.8 3.3-129.2 74.6-0.7 0.4zm141.8-68.7l-129.6 74.9-6.5 3.7v157.2l131.2-75.7 4.9-2.9zm0-176.5l-6.9-4-129.2-74.6v156.7l5.3 3.1 130.8 75.5zm5.7-9.9l141.9-81.9v-163.3l-7-4-129.1-74.6v163.8l-11.5 6.6-129.2 74.6-0.8 0.4zm5.8 9.9v156.7l136.1-78.6v-156.7zm136.1 255.2l-6.5-3.8-129.6-74.8v157.2l4.9 2.8 131.2 75.8zm147.6-78.6l-136.1 78.6v157.2l136.1-78.6zm147.6 78.6l-136.1-78.6v157.2l135.7 78.4 0.4 0.2zm141.4-88.3l-0.8-0.5-129.2-74.5-11.4-6.6v-163.9l-129.2 74.6-12.7 7.3-12.6-7.3-129.2-74.6v163.9l-11.5 6.6-129.2 74.5-0.8 0.5 135.8 78.4 141.8-82v-6.6l5.7 3.3 5.8-3.3v6.6l136.1 78.7 5.7 3.3zm6.2 9.6l-129.6 74.9-6.6 3.7v157.2l131.2-75.7 5-2.9zm0-176.5l-7-4-129.2-74.6v156.7l5.4 3.1 130.8 75.5zm295.1 176.5l-136.1 78.6v157.2l136.1-78.6zm147.6 78.6l-136.1-78.6v157.2l136.1 78.6zm147.6-78.6l-136.1 78.6v157.2l136.1-78.6z"/>
		</g>
	</g>
</svg>