<svg version="1.2" xmlns="http://www.w3.org/2000/svg" viewBox="0 0 3000 1700" width="3000" height="1700">
	<title>image2-svg</title>
	<defs>
		<linearGradient id="g1" x1="-1066" y1="289" x2="487.1" y2="273.5" gradientUnits="userSpaceOnUse">
			<stop offset="0" stop-color="#00c5e9"/>
			<stop offset=".6" stop-color="#003bff"/>
			<stop offset="1" stop-color="#d654ff"/>
		</linearGradient>
		<linearGradient id="g2" x1="-1361.9" y1="206.2" x2="191.2" y2="190.8" gradientUnits="userSpaceOnUse">
			<stop offset="0" stop-color="#00c5e9"/>
			<stop offset=".6" stop-color="#003bff"/>
			<stop offset="1" stop-color="#d654ff"/>
		</linearGradient>
	</defs>
	<style>
		.s0 { opacity: .1;fill: url(#g1) } 
		.s1 { mix-blend-mode: screen;fill: url(#g2) } 
	</style>
	<g id="BACKGROUND">
	</g>
	<filter id="f0">
		<feFlood flood-color="#05070b" flood-opacity="1" />
		<feBlend mode="normal" in2="SourceGraphic"/>
		<feComposite in2="SourceAlpha" operator="in" />
	</filter>
	<g id="OBJECT" filter="url(#f0)">
		<g id="&lt;Clip Group&gt;">
			<path id="&lt;Compound Path&gt;" fill-rule="evenodd" class="s0" d="m-903.9 1058v-421.8h11.4v245.2l136.2-78.6v-169.9l147.6-85.2v-156.7l-139 80.3-5.8-10 144.8-83.5 153.3-88.5 147.5 85.2 147.6-85.2 147.6 85.2 147.6-85.2 147.6 85.2 147.6-85.2 147.5 85.2 147.6-85.2 147.6 85.2 141.5-81.7 6.1-3.5 5.3 3.1 142.3 82.1 147.5-85.2 147.6 85.2 147.6-85.2 153.3 88.5v386.2h-11.4v-209.2l-141.9-81.9-5.7 3.3-136.2 78.6v169.9l-141.4 81.7 0.8 0.4 129.2 74.6 11.4 6.6v13.7l-16.8-9.7-130.7-75.4-5.8-3.4-5.7 3.4-130.8 75.4-16.8 9.7v-13.7l11.5-6.6 129.2-74.6 0.8-0.4-135.7-78.4-141.9 81.9v163.3l6.9 4.1 129.2 74.5v-0.5l5.8 3.3 5.7-3.3v0.5l129.2-74.5 12.6-7.4 12.7 7.4 135.7 78.3 10.7 6.2-17.2 9.9-130.8 75.5-5.3 3.1v176.5l-8.6-5-110.7-63.9-39.8-22.9v-169.9l-141.8-81.9-5.7 3.3-130 75 130 75 11.4 6.7v170.4l6.5 3.7 129.6 74.9 8.6 4.9-5.7 9.9-7.8-4.5-131.2-75.7-5.7-3.3-5.7 3.3-131.2 75.7-10.7 6.2-5.7-3.3-5-2.9-131.2-75.7-5.7-3.3-5.7 3.3-131.2 75.7-10.7 6.2-10.6-6.2-131.2-75.7-17.2-9.9-102.1-59-39.7-22.9v-163.3l-136.2 78.6v170.8l0.4 157v31.6h-11.4v-18l-0.4-164.9-131.2 75.7-10.7 6.2-10.7-6.2-131.2-75.7-11.4-6.6v-177l11.4-6.7 129.2-74.5 0.8-0.5-135.7-78.3-141.8 81.9v166.6h-11.5v-166.7l-6.1-3.5 6.1-3.5v-162.9l-136.1-78.6v163.4l-141.4 81.6 141.4 81.7v183.6l-8.6-5-144.7-83.5-5.7 3.3-139 80.2-8.6 5-141.9 81.9-153.3-88.5v-177zm1924.3-585.1l-5.8 3.3-136.1 78.6v6.6l-5.7-3.3-5.7 3.3v-6.6l-141.9-81.9-135.7 78.4 0.8 0.4 129.2 74.6v13.7l-136.2-78.6v156.7l136.2 78.6v-155.8l11.4 6.6v149.2l129.2-74.6 12.7-7.3 12.6 7.3 129.2 74.6v-149.2l5.8-3.3 5.7 3.3v149.2l129.2-74.6 6.9-4v-156.7l-130.8 75.5-5.3-3.1v-7.5l129.2-74.6 0.8-0.4zm-749 419.2l-130.8-75.5-5.7-3.3-5.8 3.3-136.1 78.6v156.7l136.1-78.6 5.8-3.3 12.6 7.3 129.2 74.6v-149.2l5.7-3.3 5.8 3.3v149.2l129.2-74.6 6.9-4v-156.7l-130.8 75.5-5.3-3.1v-7.5l56-32.4 74-42.7-130-75-4.4-2.5-7.1-4.1v-163.3l-130.7 75.5-5.4 3.1v162.8l6.9 4 129 74.5 0.2 0.1v7.5zm448 244.5v7.5l-5.4 3.1-130.7-75.5v156.7l6.9 4 129.2 74.6v-149.2l5.7-3.3 5.7 3.3v149.2l129.2-74.6 7-4v-163.3l-6.1-3.6 6.1-3.5v-162.8l-5.4-3.1-130.8-75.5v160h-5.7l2.9 4.9-138.6 80 0.8 0.5zm731.4-74.4l0.8-0.4-136.2-78.6-135.7 78.3 0.8 0.5 129.2 74.6 6.2 3.5 5.3-3zm-277.2 166.3l6.9 4 27.1 15.6 102.1 59v-156.7l-5.3-3.1-130.8-75.5zm-1930-412.3l-136.1 78.5v157.3l136.1-78.6zm147.6-255.2l-136.2 78.6v157.2l136.2-78.6zm0 334.2l-136.2-78.6v156.7l136.2 78.6zm5.7-167.1l-135.7 78.4 135.7 78.3 135.7-78.3-131.3-75.8zm141.9-422.2l-136.2 78.7v157.2l136.2-78.6zm147.5 78.7l-136.1-78.6v157.2l136.1 78.6zm749.4 758.8v163.8l129.2-74.6 6.9-4v-163.3l-141.8-81.9-135.7 78.3 0.7 0.5 129.2 74.6zm572.6-336.8l-135.7-78.3-135.7 78.3 0.8 0.5 129.2 74.6 5.7 3.3 5.8-3.3 129.2-74.6zm-1009.2-255.1l130 75.1 5.7 3.3 5.7-3.3 129.2-74.6 0.8-0.5-135.7-78.3-5.7 3.3zm-165.1-75l-130 75.1 130 75 5.7 3.3 5.7-3.3 129.2-74.6 0.8-0.4-135.7-78.4zm11.4 320.5l129.2-74.5 6.9-4v-156.8l-130.8 75.5-5.3 3.1zm874 13.3l-141.8-81.9-135.7 78.3 0.8 0.5 129.1 74.6 11.5 6.6v163.8l129.2-74.6 6.9-4zm-278.3-173.1l-5.4 3.1v156.7l129.2-74.5 6.9-4v-156.8zm-153.1-75.5v156.8l136.2 78.6v-156.8zm283.8 333.8l-136.1-78.6v156.7l136.1 78.6zm-442.7-98.4v-156.7l-136.2-78.6v156.7zm165.1-245.5l0.8 0.4 129.2 74.6 5.7 3.3 5.7-3.3 129.2-74.6 0.8-0.4-135.7-78.4zm-172.1 255.5l0.8-0.4-135.7-78.4-135.7 78.4 0.7 0.4 135 77.9zm-417.9-84.9l129.7 74.8v-156.7l-5.4-3.1-130.8-75.5v156.7zm129.7-416.2l-136.2 78.6v157.2l136.2-78.6zm147.6 78.6l-136.2-78.6v157.2l136.2 78.6zm147.5-78.6l-131.2 75.8-4.9 2.8v157.2l129.6-74.8 6.5-3.8zm11.5 0v157.2l6.5 3.8 129.6 74.8v-157.2l-4.9-2.8zm283.7 0.1l-131.2 75.7-5 2.9v157.2l129.7-74.9 6.5-3.7zm11.4 0v157.2l6.5 3.7 129.7 74.9v-157.2l-5-2.9zm283.7-0.1l-131.2 75.8-4.9 2.8v157.2l129.6-74.8 6.5-3.8zm147.6 78.6l-136.1-78.6v157.2l136.1 78.6zm147.6-78.6l-0.4 0.2-135.7 78.4v157.2l136.1-78.6zm11.4 0v157.2l6.6 3.7 129.6 74.9v-157.2l-4.9-2.9zm283.9-0.1l-131.3 75.8-4.9 2.8v157.2l129.6-74.8 6.6-3.8zm-129.2 245.9l129.2 74.6 5.7 3.3 5.7-3.3 130-75-130-75.1-5.7-3.3-135.7 78.4zm140.6 245.1l136.1-78.6v-156.7l-136.1 78.6zm136.1-412.3l-136.1-78.6v157.2l136.1 78.6zm295.2 0l-136.1-78.6v157.2l136.1 78.6zm-147.6 78.6v-157.2l-136.1 78.6v157.2zm-431.2 255.1l6.9 4 129.2 74.6v-156.7l-5.4-3.1-130.7-75.5zm-166 259.1l6.9-4v-156.7l-130.7 75.5-5.4 3.1v156.7zm6.9 173.1l-5.3-3.1-130.8-75.5v156.7l6.9 4 129.2 74.6zm-147.6 241.9l5.8 3.3 5.7-3.3 129.6-74.9 0.8-0.4-136.1-78.6-136.2 78.6 0.8 0.4zm-295.1-0.1l5.7 3.3 5.7-3.3 129.7-74.8 0.8-0.5-136.2-78.6-136.1 78.6 0.8 0.5zm-283.7-163.7l34 19.6 102.1 59v-156.7l-136.1-78.7zm-18.4-166.5l0.8-0.5-135.7-78.3-135.7 78.3 0.8 0.5 129.2 74.5 5.7 3.4 5.7-3.4zm-140.6 88.2l-5.4-3.1-130.8-75.5v156.7l7 4 129.2 74.6zm-147.6 241.9l5.7 3.3 5.7-3.3 129.7-74.9 0.8-0.4-136.2-78.6-136.1 78.6 0.8 0.4zm-130.8-245.1l-5.3 3.1v156.7l129.2-74.6 6.9-4v-156.7zm-5.3-173.9l6.9 4 129.2 74.6v-156.7l-5.3-3.1-130.8-75.5zm-147.6 78.6l129.2-74.6 7-4v-156.7l-130.8 75.5-5.4 3.1zm-5.7-167.1l134.9-77.9 0.8-0.5-135.7-78.3-0.8 0.5-20.9 12-114 65.8zm-141.9-88.6v0.5l136.2-78.5v-163.4l-141.9-81.9-135.7 78.4 141.4 81.6v13.7l-147.5-85.2v156.8l20.9 12.1 115.2 66.4v-0.5l5.7 3.4zm-147.5 432.3l136.1 78.6v-156.7l-136.1-78.6zm0-176.5l136.1-78.6v-156.7l-136.1 78.6zm-147.6 255.1l136.1-78.6v-156.7l-136.1 78.6zm-5.7-167.1l135.7-78.4-135.7-78.3-135.7 78.3zm-5.7 10.3l-136.2-78.6v156.7l136.2 78.6zm-141.9 245.2l136.2-78.6-136.2-78.6-136.1 78.6zm-141.8-88.5l136.1-78.6v-157.2l-136.1 78.6z"/>
			<path id="&lt;Compound Path&gt;" fill-rule="evenodd" class="s1" d="m-1329.9 1154.2l136.7 78.9 5.7-3.3 136.2-78.6v-157.6l11.7-6.8q0.1 0.4 0.2 0.8l-0.5 0.3v156.7l136.2-78.6v-156.7l-1.5 0.8q0-0.3-0.1-0.7l13.7-7.9q1.4 0.5 2.8 0.8c4.8 1.3 9.5 2.7 14.2 4l124.2 71.7 141.8-81.9v-157.8l11.3-6.5q0.1 0.8 0.2 1.5v156.2l130.7-75.5 5.4-3.1v-156.7l-1.4 0.7q0-0.4 0-0.8l12-7q0.4 1.4 0.8 2.6v161.2l5.4 3.1 130.8 75.5v-160h5.7l-2.9-5 138.6-80-0.8-0.4-129.2-74.6-6.8-4-4.6-2.7v-14.6l5.7 3.3 5.7-3.3v7.5l5.1 3 0.3 0.1 130.8 75.5v-151.2l9.8-5.7v0.9c0 4.1 0.6 8 1.6 11.7v150.9l141.9 82 135.7-78.4-0.8-0.5-129.2-74.5-11.4-6.7v-163.8l-1.8 1.1q0-0.6 0.1-1.2l17.9-10.3 0.9 0.5 102.1 59 39.8 22.9v163.3l136.1-78.6v-170.8l-0.4-157v-31.6h11.4l0.1 18 0.3 164.9h0.1l131.2-75.7 10.6-6.2 10.7 6.2 131.2 75.7 11.4 6.6v177l-11.4 6.7-129.2 74.5-0.8 0.5 135.7 78.4 141.9-82v-166.6h11.4v166.7l6.1 3.5-6.1 3.5v162.9l136.1 78.6v-163.4l141.5-81.6-141.5-81.7v-183.6l8.6 5 144.7 83.5 5.8-3.3 139-80.2 8.5-5 141.9-81.9 153.3 88.5v177l-147.6 85.2v500h-11.4v-323.4l-136.2 78.6v169.9l-147.5 85.2v156.7l139-80.3 5.7 10-144.7 83.5-11.5 6.6v-170.4l-136.1 78.6v170.4l-5.7 3.3-147.6-85.2-147.6 85.2-5.7-3.3v-170.4l-136.2-78.6v170.4l-5.7-3.3-147.6 85.2-147.5-85.2-5.8 3.3v-7.5l-4.9-2.9 4.9-2.8v-157.2l-129.6 74.8-6.5 3.8v170.4l-5.7 3.3-147.6-85.2-147.6 85.2-147.6-85.2-141.4 81.7-6.2 3.5-5.3-3.1-142.2-82.1-6.3 3.6v-13.2l0.5-0.3v-157.2l-0.5 0.3v-20.5l0.5 0.4v-156.7l-6.9-4-129.2-74.6v156.7l5.4 3.1 79.9 46.1-10.1 7.9-75.2-43.4-5.7-3.3-5.7 3.3-130 75 130 75.1 5.7 3.3 5.1-3v183.6l-5.1 3-147.6-85.2-147.6 85.2-153.3-88.5v-164.5zm1009.5-255.1l-129.2-74.6-5.7-3.3-5.7 3.3-129.2 74.6-0.8 0.5 135.7 78.3 135.7-78.3zm302.2-166.4l-136.2-78.6v156.7l136.2 78.6zm147.5-255.1l-34-19.6-102.1-59v156.7l136.1 78.6zm0 176.5l-129.2 74.6-6.9 4v156.7l130.8-75.5 5.3-3.1zm153.3-88l-5.7 3.3-129.2 74.6-0.8 0.5 135.7 78.3 135.7-78.3-0.8-0.5-129.1-74.6zm-141.7 88v156.7l5.3 3.1 130.8 75.5 5.7 3.3 5.7-3.3 136.2-78.6v-156.7l-136.2 78.6-5.7 3.3-12.7-7.3zm147.4-98.4l5.4 3.1 130.8 75.5v-156.7l-7-4-129.2-74.6zm277.2-167l-129.6-74.9-5.7-3.3-5.7 3.3-129.7 74.9-0.7 0.4 136.1 78.6 136.1-78.6zm1.2 170.1l5.4-3.1v-156.7l-129.2 74.6-7 4v156.7zm5.3 173.9l-6.9-4-129.2-74.6v156.7l5.4 3.1 130.7 75.5zm147.6-78.6l-129.2 74.6-6.9 4v156.7l130.8-75.5 5.3-3.1zm295.2-176.5l-136.2-78.6v156.7l136.2 78.6zm0 176.5l-136.2 78.6v156.7l136.2-78.6zm147.6-255.1l-136.2 78.6v156.7l136.2-78.6zm159 235.8l136.1-78.6v-157.3l-136.1 78.7zm-5.7-167.1l136.1-78.7-136.1-78.6-136.2 78.6zm-142-68.8v156.7l136.2 78.6v-156.7zm0.1 490.9l136.1-78.6v-157.2l-136.1 78.6zm130-245.5l-135.7-78.3-135.7 78.3 135.7 78.4zm-277.6 9.7v156.7l136.2 78.6v-156.7zm0.1 490.9l136.1-78.6v-157.2l-136.1 78.6zm-10.1-169.6l4.4 2.5 135.7-78.3-135.7-78.4-135.7 78.4zm-285.1 346.2l136.2 78.6v-157.2l-136.2-78.6zm0-170.5l141.9 82 5.7-3.3 130-75.1-141.4-81.6v-13.8l147.6 85.2v-156.7l-21-12.1-115.2-66.5v0.6l-5.7-3.4-5.7 3.4v-0.6l-136.2 78.6zm-4.9-173.6l20.9-12.1 114-65.8-135.7-78.4-134.9 77.9-0.8 0.5 135.7 78.3zm-142.6-68.3v156.7l5.3 3.1 130.8 75.5v-156.7l-6.5-3.8zm-0.1 490.9l136.2-78.6v-157.2l-136.2 78.6zm-5.7-167.1l5.7-3.3 130-75.1-130-75-5.7-3.3-5.7 3.3-129.2 74.5-0.8 0.5zm-141.8-88.6l130.7-75.5 5.4-3.1v-156.7l-129.2 74.6-6.9 4zm129.9-245l-0.7-0.4-135-77.9-134.9 77.9-0.8 0.4 135.7 78.4zm-277.5 9.7v156.7l136.1 78.6v-156.7zm-0.1 491l131.3-75.8 4.9-2.8v-157.2l-129.6 74.8-6.6 3.8zm0-170.4l130-75.1-130-75-5.7-3.4-5.7 3.4-129.2 74.5-0.8 0.5 135.7 78.4zm-147.5 91.8l4.9 2.8 131.2 75.8v-157.2l-6.5-3.8-129.6-74.8zm-7.1-344.5l7.1 4.1v163.3l130.8-75.5 5.3-3.1v-162.8l-6.9-4-129-74.4-0.2-0.2-5.7-3.3-5.8 3.3-55.9 32.4-74 42.7 129.9 75zm-4.4 10.8l-136.1-78.7v156.8l136.1 78.6zm-6.2 166.8l-0.7-0.4-129.2-74.6-5.8-3.3-5.7 3.3-129.2 74.6-0.8 0.4 135.7 78.4zm-277.5 166.9l4.9 2.9 131.2 75.7v-157.2l-6.5-3.7-129.6-74.9zm0-177l130.8-75.5 5.3-3.1v-156.7l-129.2 74.6-6.9 4zm130-245l-0.8-0.4-129.2-74.6-11.5-6.6v-163.8l-129.1 74.6-7 4v163.3l141.9 81.9zm-277.6 9.7v156.7l136.1 78.6v-156.7zm0 491l131.2-75.8 4.9-2.8v-157.2l-129.6 74.8-6.5 3.8zm-147.6-78.6l136.1 78.6v-157.2l-136.1-78.6zm-147.6 78.6l0.4-0.2 135.7-78.4v-157.2l-136.1 78.6zm-5.7-167.1l5.7-3.3 136.1-78.7v-6.6l5.8 3.3 5.7-3.3v6.6l141.8 82 135.8-78.4-0.8-0.5-129.2-74.5-11.5-6.6v-163.9l-129.2 74.6-12.6 7.3-12.7-7.3-129.2-74.6v163.9l-11.4 6.6-129.2 74.5-0.8 0.5zm-141.9 88.4l5 2.9 131.2 75.7v-157.2l-6.6-3.7-129.6-74.9zm0-177l130.8-75.5 5.4-3.1v-156.7l-129.2 74.6-7 4zm-295.1 177l136.1 78.6v-157.2l-136.1-78.6zm-147.6 78.6l136.1-78.6v-157.2l-136.1 78.6zm-147.6-78.6l136.1 78.6v-157.2l-136.1-78.6z"/>
		</g>
	</g>
</svg>